<?xml version="1.0" encoding="UTF-8" standalone="no"?>
<!DOCTYPE svg PUBLIC "-//W3C//DTD SVG 1.1//EN"
 "http://www.w3.org/Graphics/SVG/1.1/DTD/svg11.dtd">
<!-- Generated by graphviz version 2.43.0 (0)
 -->
<!-- Title: all_connections Pages: 1 -->
<svg width="540pt" height="477pt"
 viewBox="0.00 0.00 540.00 477.00" xmlns="http://www.w3.org/2000/svg" xmlns:xlink="http://www.w3.org/1999/xlink">
<g id="graph0" class="graph" transform="scale(1 1) rotate(0) translate(4 473)">
<title>all_connections</title>
<polygon fill="white" stroke="transparent" points="-4,4 -4,-473 536,-473 536,4 -4,4"/>
<g id="clust1" class="cluster">
<title>cluster_tier_0.0</title>
<polygon fill="#ffffff" stroke="black" points="182,-265 182,-461 419,-461 419,-265 182,-265"/>
<text text-anchor="middle" x="300.5" y="-449" font-family="Helvetica,Arial,sans-serif" font-size="10.00">tier_0.0</text>
</g>
<g id="clust2" class="cluster">
<title>cluster_generic.0</title>
<polygon fill="#ffffff" stroke="black" points="8,-8 8,-204 131,-204 131,-8 8,-8"/>
<text text-anchor="middle" x="69.5" y="-192" font-family="Helvetica,Arial,sans-serif" font-size="10.00">generic.0</text>
</g>
<g id="clust3" class="cluster">
<title>cluster_generic.1</title>
<polygon fill="#ffffff" stroke="black" points="139,-8 139,-204 262,-204 262,-8 139,-8"/>
<text text-anchor="middle" x="200.5" y="-192" font-family="Helvetica,Arial,sans-serif" font-size="10.00">generic.1</text>
</g>
<g id="clust4" class="cluster">
<title>cluster_generic.2</title>
<polygon fill="#ffffff" stroke="black" points="270,-8 270,-204 393,-204 393,-8 270,-8"/>
<text text-anchor="middle" x="331.5" y="-192" font-family="Helvetica,Arial,sans-serif" font-size="10.00">generic.2</text>
</g>
<g id="clust5" class="cluster">
<title>cluster_generic.3</title>
<polygon fill="#ffffff" stroke="black" points="401,-8 401,-204 524,-204 524,-8 401,-8"/>
<text text-anchor="middle" x="462.5" y="-192" font-family="Helvetica,Arial,sans-serif" font-size="10.00">generic.3</text>
</g>
<!-- tier_0.0.port&#45;down.0 -->
<g id="node1" class="node">
<title>tier_0.0.port&#45;down.0</title>
<polygon fill="#ffffff" stroke="black" points="240,-323 190,-323 190,-273 240,-273 240,-323"/>
<text text-anchor="middle" x="215" y="-296.1" font-family="Helvetica,Arial,sans-serif" font-size="8.00">port&#45;down.0</text>
</g>
<!-- generic.0.nic.0 -->
<g id="node6" class="node">
<title>generic.0.nic.0</title>
<polygon fill="#ffffff" stroke="black" points="123,-177 73,-177 73,-127 123,-127 123,-177"/>
<text text-anchor="middle" x="98" y="-150.1" font-family="Helvetica,Arial,sans-serif" font-size="8.00">nic.0</text>
</g>
<!-- tier_0.0.port&#45;down.0&#45;&gt;generic.0.nic.0 -->
<g id="edge5" class="edge">
<title>tier_0.0.port&#45;down.0&#45;&gt;generic.0.nic.0</title>
<path fill="none" stroke="black" d="M194.56,-272.67C178.94,-253.99 156.94,-227.5 138,-204 131.01,-195.33 123.44,-185.73 116.79,-177.23"/>
<text text-anchor="middle" x="186" y="-232.6" font-family="Helvetica,Arial,sans-serif" font-size="8.00">100_gbps</text>
</g>
<!-- tier_0.0.port&#45;down.1 -->
<g id="node2" class="node">
<title>tier_0.0.port&#45;down.1</title>
<polygon fill="#ffffff" stroke="black" points="297,-323 247,-323 247,-273 297,-273 297,-323"/>
<text text-anchor="middle" x="272" y="-296.1" font-family="Helvetica,Arial,sans-serif" font-size="8.00">port&#45;down.1</text>
</g>
<!-- generic.1.nic.0 -->
<g id="node9" class="node">
<title>generic.1.nic.0</title>
<polygon fill="#ffffff" stroke="black" points="254,-177 204,-177 204,-127 254,-127 254,-177"/>
<text text-anchor="middle" x="229" y="-150.1" font-family="Helvetica,Arial,sans-serif" font-size="8.00">nic.0</text>
</g>
<!-- tier_0.0.port&#45;down.1&#45;&gt;generic.1.nic.0 -->
<g id="edge8" class="edge">
<title>tier_0.0.port&#45;down.1&#45;&gt;generic.1.nic.0</title>
<path fill="none" stroke="black" d="M264.8,-272.9C256.87,-246.32 244.17,-203.79 236.22,-177.18"/>
<text text-anchor="middle" x="274" y="-232.6" font-family="Helvetica,Arial,sans-serif" font-size="8.00">100_gbps</text>
</g>
<!-- tier_0.0.port&#45;down.2 -->
<g id="node3" class="node">
<title>tier_0.0.port&#45;down.2</title>
<polygon fill="#ffffff" stroke="black" points="354,-323 304,-323 304,-273 354,-273 354,-323"/>
<text text-anchor="middle" x="329" y="-296.1" font-family="Helvetica,Arial,sans-serif" font-size="8.00">port&#45;down.2</text>
</g>
<!-- generic.2.nic.0 -->
<g id="node12" class="node">
<title>generic.2.nic.0</title>
<polygon fill="#ffffff" stroke="black" points="385,-177 335,-177 335,-127 385,-127 385,-177"/>
<text text-anchor="middle" x="360" y="-150.1" font-family="Helvetica,Arial,sans-serif" font-size="8.00">nic.0</text>
</g>
<!-- tier_0.0.port&#45;down.2&#45;&gt;generic.2.nic.0 -->
<g id="edge11" class="edge">
<title>tier_0.0.port&#45;down.2&#45;&gt;generic.2.nic.0</title>
<path fill="none" stroke="black" d="M334.19,-272.9C339.91,-246.32 349.07,-203.79 354.79,-177.18"/>
<text text-anchor="middle" x="363" y="-232.6" font-family="Helvetica,Arial,sans-serif" font-size="8.00">100_gbps</text>
</g>
<!-- tier_0.0.port&#45;down.3 -->
<g id="node4" class="node">
<title>tier_0.0.port&#45;down.3</title>
<polygon fill="#ffffff" stroke="black" points="411,-323 361,-323 361,-273 411,-273 411,-323"/>
<text text-anchor="middle" x="386" y="-296.1" font-family="Helvetica,Arial,sans-serif" font-size="8.00">port&#45;down.3</text>
</g>
<!-- generic.3.nic.0 -->
<g id="node15" class="node">
<title>generic.3.nic.0</title>
<polygon fill="#ffffff" stroke="black" points="516,-177 466,-177 466,-127 516,-127 516,-177"/>
<text text-anchor="middle" x="491" y="-150.1" font-family="Helvetica,Arial,sans-serif" font-size="8.00">nic.0</text>
</g>
<!-- tier_0.0.port&#45;down.3&#45;&gt;generic.3.nic.0 -->
<g id="edge14" class="edge">
<title>tier_0.0.port&#45;down.3&#45;&gt;generic.3.nic.0</title>
<path fill="none" stroke="black" d="M407.83,-272.63C423.7,-254.36 445.25,-228.42 462,-204 467.82,-195.52 473.56,-185.79 478.38,-177.12"/>
<text text-anchor="middle" x="462" y="-232.6" font-family="Helvetica,Arial,sans-serif" font-size="8.00">100_gbps</text>
</g>
<!-- tier_0.0.asic.0 -->
<g id="node5" class="node">
<title>tier_0.0.asic.0</title>
<polygon fill="#ffffff" stroke="black" points="325,-434 275,-434 275,-384 325,-384 325,-434"/>
<text text-anchor="middle" x="300" y="-407.1" font-family="Helvetica,Arial,sans-serif" font-size="8.00">asic.0</text>
</g>
<!-- tier_0.0.asic.0&#45;&gt;tier_0.0.port&#45;down.0 -->
<g id="edge1" class="edge">
<title>tier_0.0.asic.0&#45;&gt;tier_0.0.port&#45;down.0</title>
<path fill="none" stroke="black" d="M281.14,-383.81C267.05,-365.75 247.88,-341.17 233.81,-323.12"/>
<text text-anchor="middle" x="266.5" y="-351.6" font-family="Helvetica,Arial,sans-serif" font-size="8.00">mii</text>
</g>
<!-- tier_0.0.asic.0&#45;&gt;tier_0.0.port&#45;down.1 -->
<g id="edge2" class="edge">
<title>tier_0.0.asic.0&#45;&gt;tier_0.0.port&#45;down.1</title>
<path fill="none" stroke="black" d="M293.79,-383.81C289.15,-365.75 282.83,-341.17 278.2,-323.12"/>
<text text-anchor="middle" x="293.5" y="-351.6" font-family="Helvetica,Arial,sans-serif" font-size="8.00">mii</text>
</g>
<!-- tier_0.0.asic.0&#45;&gt;tier_0.0.port&#45;down.2 -->
<g id="edge3" class="edge">
<title>tier_0.0.asic.0&#45;&gt;tier_0.0.port&#45;down.2</title>
<path fill="none" stroke="black" d="M306.44,-383.81C311.24,-365.75 317.78,-341.17 322.58,-323.12"/>
<text text-anchor="middle" x="321.5" y="-351.6" font-family="Helvetica,Arial,sans-serif" font-size="8.00">mii</text>
</g>
<!-- tier_0.0.asic.0&#45;&gt;tier_0.0.port&#45;down.3 -->
<g id="edge4" class="edge">
<title>tier_0.0.asic.0&#45;&gt;tier_0.0.port&#45;down.3</title>
<path fill="none" stroke="black" d="M319.09,-383.81C333.34,-365.75 352.73,-341.17 366.97,-323.12"/>
<text text-anchor="middle" x="352.5" y="-351.6" font-family="Helvetica,Arial,sans-serif" font-size="8.00">mii</text>
</g>
<!-- generic.0.npu.0 -->
<g id="node8" class="node">
<title>generic.0.npu.0</title>
<polygon fill="#ffffff" stroke="black" points="93,-66 43,-66 43,-16 93,-16 93,-66"/>
<text text-anchor="middle" x="68" y="-39.1" font-family="Helvetica,Arial,sans-serif" font-size="8.00">npu.0</text>
</g>
<!-- generic.0.nic.0&#45;&gt;generic.0.npu.0 -->
<g id="edge6" class="edge">
<title>generic.0.nic.0&#45;&gt;generic.0.npu.0</title>
<path fill="none" stroke="black" d="M93.93,-126.99C91.9,-116.2 89.19,-103.37 86,-92 83.61,-83.47 80.48,-74.31 77.51,-66.19"/>
<text text-anchor="middle" x="97" y="-94.6" font-family="Helvetica,Arial,sans-serif" font-size="8.00">pcie</text>
</g>
<!-- generic.0.npu_interconnect_switch.0 -->
<g id="node7" class="node">
<title>generic.0.npu_interconnect_switch.0</title>
<polygon fill="#ffffff" stroke="black" points="66,-177 16,-177 16,-127 66,-127 66,-177"/>
<text text-anchor="middle" x="41" y="-150.1" font-family="Helvetica,Arial,sans-serif" font-size="8.00">npu_interconnect_switch.0</text>
</g>
<!-- generic.0.npu_interconnect_switch.0&#45;&gt;generic.0.npu.0 -->
<g id="edge7" class="edge">
<title>generic.0.npu_interconnect_switch.0&#45;&gt;generic.0.npu.0</title>
<path fill="none" stroke="black" d="M41.84,-126.89C42.62,-116.09 44.13,-103.27 47,-92 49.21,-83.33 52.67,-74.21 56.15,-66.17"/>
<text text-anchor="middle" x="68" y="-94.6" font-family="Helvetica,Arial,sans-serif" font-size="8.00">1600gbps</text>
</g>
<!-- generic.1.npu.0 -->
<g id="node11" class="node">
<title>generic.1.npu.0</title>
<polygon fill="#ffffff" stroke="black" points="224,-66 174,-66 174,-16 224,-16 224,-66"/>
<text text-anchor="middle" x="199" y="-39.1" font-family="Helvetica,Arial,sans-serif" font-size="8.00">npu.0</text>
</g>
<!-- generic.1.nic.0&#45;&gt;generic.1.npu.0 -->
<g id="edge9" class="edge">
<title>generic.1.nic.0&#45;&gt;generic.1.npu.0</title>
<path fill="none" stroke="black" d="M224.93,-126.99C222.9,-116.2 220.19,-103.37 217,-92 214.61,-83.47 211.48,-74.31 208.51,-66.19"/>
<text text-anchor="middle" x="228" y="-94.6" font-family="Helvetica,Arial,sans-serif" font-size="8.00">pcie</text>
</g>
<!-- generic.1.npu_interconnect_switch.0 -->
<g id="node10" class="node">
<title>generic.1.npu_interconnect_switch.0</title>
<polygon fill="#ffffff" stroke="black" points="197,-177 147,-177 147,-127 197,-127 197,-177"/>
<text text-anchor="middle" x="172" y="-150.1" font-family="Helvetica,Arial,sans-serif" font-size="8.00">npu_interconnect_switch.0</text>
</g>
<!-- generic.1.npu_interconnect_switch.0&#45;&gt;generic.1.npu.0 -->
<g id="edge10" class="edge">
<title>generic.1.npu_interconnect_switch.0&#45;&gt;generic.1.npu.0</title>
<path fill="none" stroke="black" d="M172.84,-126.89C173.62,-116.09 175.13,-103.27 178,-92 180.21,-83.33 183.67,-74.21 187.15,-66.17"/>
<text text-anchor="middle" x="199" y="-94.6" font-family="Helvetica,Arial,sans-serif" font-size="8.00">1600gbps</text>
</g>
<!-- generic.2.npu.0 -->
<g id="node14" class="node">
<title>generic.2.npu.0</title>
<polygon fill="#ffffff" stroke="black" points="357,-66 307,-66 307,-16 357,-16 357,-66"/>
<text text-anchor="middle" x="332" y="-39.1" font-family="Helvetica,Arial,sans-serif" font-size="8.00">npu.0</text>
</g>
<!-- generic.2.nic.0&#45;&gt;generic.2.npu.0 -->
<g id="edge12" class="edge">
<title>generic.2.nic.0&#45;&gt;generic.2.npu.0</title>
<path fill="none" stroke="black" d="M355.09,-126.79C352.81,-116.08 349.95,-103.37 347,-92 344.79,-83.49 342.1,-74.25 339.61,-66.06"/>
<text text-anchor="middle" x="358" y="-94.6" font-family="Helvetica,Arial,sans-serif" font-size="8.00">pcie</text>
</g>
<!-- generic.2.npu_interconnect_switch.0 -->
<g id="node13" class="node">
<title>generic.2.npu_interconnect_switch.0</title>
<polygon fill="#ffffff" stroke="black" points="328,-177 278,-177 278,-127 328,-127 328,-177"/>
<text text-anchor="middle" x="303" y="-150.1" font-family="Helvetica,Arial,sans-serif" font-size="8.00">npu_interconnect_switch.0</text>
</g>
<!-- generic.2.npu_interconnect_switch.0&#45;&gt;generic.2.npu.0 -->
<g id="edge13" class="edge">
<title>generic.2.npu_interconnect_switch.0&#45;&gt;generic.2.npu.0</title>
<path fill="none" stroke="black" d="M300.76,-126.8C300.43,-115.98 300.98,-103.18 304,-92 306.41,-83.07 310.77,-74.03 315.33,-66.13"/>
<text text-anchor="middle" x="325" y="-94.6" font-family="Helvetica,Arial,sans-serif" font-size="8.00">1600gbps</text>
</g>
<!-- generic.3.npu.0 -->
<g id="node17" class="node">
<title>generic.3.npu.0</title>
<polygon fill="#ffffff" stroke="black" points="488,-66 438,-66 438,-16 488,-16 488,-66"/>
<text text-anchor="middle" x="463" y="-39.1" font-family="Helvetica,Arial,sans-serif" font-size="8.00">npu.0</text>
</g>
<!-- generic.3.nic.0&#45;&gt;generic.3.npu.0 -->
<g id="edge15" class="edge">
<title>generic.3.nic.0&#45;&gt;generic.3.npu.0</title>
<path fill="none" stroke="black" d="M486.09,-126.79C483.81,-116.08 480.95,-103.37 478,-92 475.79,-83.49 473.1,-74.25 470.61,-66.06"/>
<text text-anchor="middle" x="489" y="-94.6" font-family="Helvetica,Arial,sans-serif" font-size="8.00">pcie</text>
</g>
<!-- generic.3.npu_interconnect_switch.0 -->
<g id="node16" class="node">
<title>generic.3.npu_interconnect_switch.0</title>
<polygon fill="#ffffff" stroke="black" points="459,-177 409,-177 409,-127 459,-127 459,-177"/>
<text text-anchor="middle" x="434" y="-150.1" font-family="Helvetica,Arial,sans-serif" font-size="8.00">npu_interconnect_switch.0</text>
</g>
<!-- generic.3.npu_interconnect_switch.0&#45;&gt;generic.3.npu.0 -->
<g id="edge16" class="edge">
<title>generic.3.npu_interconnect_switch.0&#45;&gt;generic.3.npu.0</title>
<path fill="none" stroke="black" d="M431.76,-126.8C431.43,-115.98 431.98,-103.18 435,-92 437.41,-83.07 441.77,-74.03 446.33,-66.13"/>
<text text-anchor="middle" x="456" y="-94.6" font-family="Helvetica,Arial,sans-serif" font-size="8.00">1600gbps</text>
</g>
</g>
</svg>
