<?xml version="1.0" encoding="UTF-8" standalone="no"?>
<!DOCTYPE svg PUBLIC "-//W3C//DTD SVG 1.1//EN"
 "http://www.w3.org/Graphics/SVG/1.1/DTD/svg11.dtd">
<!-- Generated by graphviz version 2.43.0 (0)
 -->
<!-- Title: compressed Pages: 1 -->
<svg width="312pt" height="255pt"
 viewBox="0.00 0.00 312.00 255.00" xmlns="http://www.w3.org/2000/svg" xmlns:xlink="http://www.w3.org/1999/xlink">
<g id="graph0" class="graph" transform="scale(1 1) rotate(0) translate(4 251)">
<title>compressed</title>
<polygon fill="white" stroke="transparent" points="-4,4 -4,-251 308,-251 308,4 -4,4"/>
<g id="clust1" class="cluster">
<title>cluster_tier_0.0</title>
<polygon fill="#ffffff" stroke="black" points="118,-154 118,-239 184,-239 184,-154 118,-154"/>
<text text-anchor="middle" x="151" y="-227" font-family="Helvetica,Arial,sans-serif" font-size="10.00">tier_0.0</text>
</g>
<g id="clust2" class="cluster">
<title>cluster_generic.0</title>
<polygon fill="#ffffff" stroke="black" points="8,-8 8,-93 74,-93 74,-8 8,-8"/>
<text text-anchor="middle" x="41" y="-81" font-family="Helvetica,Arial,sans-serif" font-size="10.00">generic.0</text>
</g>
<g id="clust3" class="cluster">
<title>cluster_generic.1</title>
<polygon fill="#ffffff" stroke="black" points="82,-8 82,-93 148,-93 148,-8 82,-8"/>
<text text-anchor="middle" x="115" y="-81" font-family="Helvetica,Arial,sans-serif" font-size="10.00">generic.1</text>
</g>
<g id="clust4" class="cluster">
<title>cluster_generic.2</title>
<polygon fill="#ffffff" stroke="black" points="156,-8 156,-93 222,-93 222,-8 156,-8"/>
<text text-anchor="middle" x="189" y="-81" font-family="Helvetica,Arial,sans-serif" font-size="10.00">generic.2</text>
</g>
<g id="clust5" class="cluster">
<title>cluster_generic.3</title>
<polygon fill="#ffffff" stroke="black" points="230,-8 230,-93 296,-93 296,-8 230,-8"/>
<text text-anchor="middle" x="263" y="-81" font-family="Helvetica,Arial,sans-serif" font-size="10.00">generic.3</text>
</g>
<!-- tier_0.0.port&#45;down -->
<g id="node1" class="node">
<title>tier_0.0.port&#45;down</title>
<polygon fill="#ffffff" stroke="black" points="176,-212 126,-212 126,-162 176,-162 176,-212"/>
<text text-anchor="middle" x="151" y="-185.1" font-family="Helvetica,Arial,sans-serif" font-size="8.00">port&#45;down</text>
</g>
<!-- generic.0.nic -->
<g id="node2" class="node">
<title>generic.0.nic</title>
<polygon fill="#ffffff" stroke="black" points="66,-66 16,-66 16,-16 66,-16 66,-66"/>
<text text-anchor="middle" x="41" y="-39.1" font-family="Helvetica,Arial,sans-serif" font-size="8.00">nic</text>
</g>
<!-- tier_0.0.port&#45;down&#45;&gt;generic.0.nic -->
<g id="edge1" class="edge">
<title>tier_0.0.port&#45;down&#45;&gt;generic.0.nic</title>
<path fill="none" stroke="black" d="M125.8,-164.53C114.43,-154.15 101.27,-141.12 91,-128 75.77,-108.56 61.95,-84 52.72,-66.11"/>
<text text-anchor="middle" x="111" y="-121.6" font-family="Helvetica,Arial,sans-serif" font-size="8.00">100_gbps</text>
</g>
<!-- generic.1.nic -->
<g id="node3" class="node">
<title>generic.1.nic</title>
<polygon fill="#ffffff" stroke="black" points="140,-66 90,-66 90,-16 140,-16 140,-66"/>
<text text-anchor="middle" x="115" y="-39.1" font-family="Helvetica,Arial,sans-serif" font-size="8.00">nic</text>
</g>
<!-- tier_0.0.port&#45;down&#45;&gt;generic.1.nic -->
<g id="edge2" class="edge">
<title>tier_0.0.port&#45;down&#45;&gt;generic.1.nic</title>
<path fill="none" stroke="black" d="M144.08,-161.79C141.18,-151.41 137.83,-139.14 135,-128 129.71,-107.2 124.23,-83.43 120.34,-66.16"/>
<text text-anchor="middle" x="155" y="-121.6" font-family="Helvetica,Arial,sans-serif" font-size="8.00">100_gbps</text>
</g>
<!-- generic.2.nic -->
<g id="node4" class="node">
<title>generic.2.nic</title>
<polygon fill="#ffffff" stroke="black" points="214,-66 164,-66 164,-16 214,-16 214,-66"/>
<text text-anchor="middle" x="189" y="-39.1" font-family="Helvetica,Arial,sans-serif" font-size="8.00">nic</text>
</g>
<!-- tier_0.0.port&#45;down&#45;&gt;generic.2.nic -->
<g id="edge3" class="edge">
<title>tier_0.0.port&#45;down&#45;&gt;generic.2.nic</title>
<path fill="none" stroke="black" d="M160.62,-162C164.52,-151.65 168.84,-139.35 172,-128 177.71,-107.47 182.26,-83.68 185.21,-66.33"/>
<text text-anchor="middle" x="194" y="-121.6" font-family="Helvetica,Arial,sans-serif" font-size="8.00">100_gbps</text>
</g>
<!-- generic.3.nic -->
<g id="node5" class="node">
<title>generic.3.nic</title>
<polygon fill="#ffffff" stroke="black" points="288,-66 238,-66 238,-16 288,-16 288,-66"/>
<text text-anchor="middle" x="263" y="-39.1" font-family="Helvetica,Arial,sans-serif" font-size="8.00">nic</text>
</g>
<!-- tier_0.0.port&#45;down&#45;&gt;generic.3.nic -->
<g id="edge4" class="edge">
<title>tier_0.0.port&#45;down&#45;&gt;generic.3.nic</title>
<path fill="none" stroke="black" d="M176.2,-166.47C188.79,-155.94 203.71,-142.2 215,-128 230.22,-108.86 243.41,-84.27 252.09,-66.29"/>
<text text-anchor="middle" x="241" y="-121.6" font-family="Helvetica,Arial,sans-serif" font-size="8.00">100_gbps</text>
</g>
</g>
</svg>
