<?xml version="1.0" encoding="UTF-8" standalone="no"?>
<!DOCTYPE svg PUBLIC "-//W3C//DTD SVG 1.1//EN"
 "http://www.w3.org/Graphics/SVG/1.1/DTD/svg11.dtd">
<!-- Generated by graphviz version 2.43.0 (0)
 -->
<!-- Title: all_connections Pages: 1 -->
<svg width="1064pt" height="477pt"
 viewBox="0.00 0.00 1064.00 477.00" xmlns="http://www.w3.org/2000/svg" xmlns:xlink="http://www.w3.org/1999/xlink">
<g id="graph0" class="graph" transform="scale(1 1) rotate(0) translate(4 473)">
<title>all_connections</title>
<polygon fill="white" stroke="transparent" points="-4,4 -4,-473 1060,-473 1060,4 -4,4"/>
<g id="clust1" class="cluster">
<title>cluster_tier_0.0</title>
<polygon fill="#ffffff" stroke="black" points="307,-265 307,-461 772,-461 772,-265 307,-265"/>
<text text-anchor="middle" x="539.5" y="-449" font-family="Helvetica,Arial,sans-serif" font-size="10.00">tier_0.0</text>
</g>
<g id="clust2" class="cluster">
<title>cluster_generic.0</title>
<polygon fill="#ffffff" stroke="black" points="8,-8 8,-204 131,-204 131,-8 8,-8"/>
<text text-anchor="middle" x="69.5" y="-192" font-family="Helvetica,Arial,sans-serif" font-size="10.00">generic.0</text>
</g>
<g id="clust3" class="cluster">
<title>cluster_generic.1</title>
<polygon fill="#ffffff" stroke="black" points="139,-8 139,-204 262,-204 262,-8 139,-8"/>
<text text-anchor="middle" x="200.5" y="-192" font-family="Helvetica,Arial,sans-serif" font-size="10.00">generic.1</text>
</g>
<g id="clust4" class="cluster">
<title>cluster_generic.2</title>
<polygon fill="#ffffff" stroke="black" points="270,-8 270,-204 393,-204 393,-8 270,-8"/>
<text text-anchor="middle" x="331.5" y="-192" font-family="Helvetica,Arial,sans-serif" font-size="10.00">generic.2</text>
</g>
<g id="clust5" class="cluster">
<title>cluster_generic.3</title>
<polygon fill="#ffffff" stroke="black" points="401,-8 401,-204 524,-204 524,-8 401,-8"/>
<text text-anchor="middle" x="462.5" y="-192" font-family="Helvetica,Arial,sans-serif" font-size="10.00">generic.3</text>
</g>
<g id="clust6" class="cluster">
<title>cluster_generic.4</title>
<polygon fill="#ffffff" stroke="black" points="532,-8 532,-204 655,-204 655,-8 532,-8"/>
<text text-anchor="middle" x="593.5" y="-192" font-family="Helvetica,Arial,sans-serif" font-size="10.00">generic.4</text>
</g>
<g id="clust7" class="cluster">
<title>cluster_generic.5</title>
<polygon fill="#ffffff" stroke="black" points="663,-8 663,-204 786,-204 786,-8 663,-8"/>
<text text-anchor="middle" x="724.5" y="-192" font-family="Helvetica,Arial,sans-serif" font-size="10.00">generic.5</text>
</g>
<g id="clust8" class="cluster">
<title>cluster_generic.6</title>
<polygon fill="#ffffff" stroke="black" points="794,-8 794,-204 917,-204 917,-8 794,-8"/>
<text text-anchor="middle" x="855.5" y="-192" font-family="Helvetica,Arial,sans-serif" font-size="10.00">generic.6</text>
</g>
<g id="clust9" class="cluster">
<title>cluster_generic.7</title>
<polygon fill="#ffffff" stroke="black" points="925,-8 925,-204 1048,-204 1048,-8 925,-8"/>
<text text-anchor="middle" x="986.5" y="-192" font-family="Helvetica,Arial,sans-serif" font-size="10.00">generic.7</text>
</g>
<!-- tier_0.0.port&#45;down.0 -->
<g id="node1" class="node">
<title>tier_0.0.port&#45;down.0</title>
<polygon fill="#ffffff" stroke="black" points="365,-323 315,-323 315,-273 365,-273 365,-323"/>
<text text-anchor="middle" x="340" y="-296.1" font-family="Helvetica,Arial,sans-serif" font-size="8.00">port&#45;down.0</text>
</g>
<!-- generic.0.nic.0 -->
<g id="node10" class="node">
<title>generic.0.nic.0</title>
<polygon fill="#ffffff" stroke="black" points="123,-177 73,-177 73,-127 123,-127 123,-177"/>
<text text-anchor="middle" x="98" y="-150.1" font-family="Helvetica,Arial,sans-serif" font-size="8.00">nic.0</text>
</g>
<!-- tier_0.0.port&#45;down.0&#45;&gt;generic.0.nic.0 -->
<g id="edge9" class="edge">
<title>tier_0.0.port&#45;down.0&#45;&gt;generic.0.nic.0</title>
<path fill="none" stroke="black" d="M314.94,-289.72C274.58,-277.13 194.05,-248.27 138,-204 128.55,-196.54 120.01,-186.4 113.28,-177.13"/>
<text text-anchor="middle" x="210" y="-232.6" font-family="Helvetica,Arial,sans-serif" font-size="8.00">100_gbps</text>
</g>
<!-- tier_0.0.port&#45;down.1 -->
<g id="node2" class="node">
<title>tier_0.0.port&#45;down.1</title>
<polygon fill="#ffffff" stroke="black" points="422,-323 372,-323 372,-273 422,-273 422,-323"/>
<text text-anchor="middle" x="397" y="-296.1" font-family="Helvetica,Arial,sans-serif" font-size="8.00">port&#45;down.1</text>
</g>
<!-- generic.1.nic.0 -->
<g id="node13" class="node">
<title>generic.1.nic.0</title>
<polygon fill="#ffffff" stroke="black" points="254,-177 204,-177 204,-127 254,-127 254,-177"/>
<text text-anchor="middle" x="229" y="-150.1" font-family="Helvetica,Arial,sans-serif" font-size="8.00">nic.0</text>
</g>
<!-- tier_0.0.port&#45;down.1&#45;&gt;generic.1.nic.0 -->
<g id="edge12" class="edge">
<title>tier_0.0.port&#45;down.1&#45;&gt;generic.1.nic.0</title>
<path fill="none" stroke="black" d="M376.49,-272.84C373.75,-270.08 370.88,-267.4 368,-265 328.25,-231.97 307.55,-238.42 269,-204 260.19,-196.13 251.87,-186.14 245.13,-177.08"/>
<text text-anchor="middle" x="346" y="-232.6" font-family="Helvetica,Arial,sans-serif" font-size="8.00">100_gbps</text>
</g>
<!-- tier_0.0.port&#45;down.2 -->
<g id="node3" class="node">
<title>tier_0.0.port&#45;down.2</title>
<polygon fill="#ffffff" stroke="black" points="479,-323 429,-323 429,-273 479,-273 479,-323"/>
<text text-anchor="middle" x="454" y="-296.1" font-family="Helvetica,Arial,sans-serif" font-size="8.00">port&#45;down.2</text>
</g>
<!-- generic.2.nic.0 -->
<g id="node16" class="node">
<title>generic.2.nic.0</title>
<polygon fill="#ffffff" stroke="black" points="385,-177 335,-177 335,-127 385,-127 385,-177"/>
<text text-anchor="middle" x="360" y="-150.1" font-family="Helvetica,Arial,sans-serif" font-size="8.00">nic.0</text>
</g>
<!-- tier_0.0.port&#45;down.2&#45;&gt;generic.2.nic.0 -->
<g id="edge15" class="edge">
<title>tier_0.0.port&#45;down.2&#45;&gt;generic.2.nic.0</title>
<path fill="none" stroke="black" d="M438.27,-272.9C420.91,-246.32 393.16,-203.79 375.78,-177.18"/>
<text text-anchor="middle" x="435" y="-232.6" font-family="Helvetica,Arial,sans-serif" font-size="8.00">100_gbps</text>
</g>
<!-- tier_0.0.port&#45;down.3 -->
<g id="node4" class="node">
<title>tier_0.0.port&#45;down.3</title>
<polygon fill="#ffffff" stroke="black" points="536,-323 486,-323 486,-273 536,-273 536,-323"/>
<text text-anchor="middle" x="511" y="-296.1" font-family="Helvetica,Arial,sans-serif" font-size="8.00">port&#45;down.3</text>
</g>
<!-- generic.3.nic.0 -->
<g id="node19" class="node">
<title>generic.3.nic.0</title>
<polygon fill="#ffffff" stroke="black" points="516,-177 466,-177 466,-127 516,-127 516,-177"/>
<text text-anchor="middle" x="491" y="-150.1" font-family="Helvetica,Arial,sans-serif" font-size="8.00">nic.0</text>
</g>
<!-- tier_0.0.port&#45;down.3&#45;&gt;generic.3.nic.0 -->
<g id="edge18" class="edge">
<title>tier_0.0.port&#45;down.3&#45;&gt;generic.3.nic.0</title>
<path fill="none" stroke="black" d="M507.65,-272.9C503.96,-246.32 498.05,-203.79 494.36,-177.18"/>
<text text-anchor="middle" x="522" y="-232.6" font-family="Helvetica,Arial,sans-serif" font-size="8.00">100_gbps</text>
</g>
<!-- tier_0.0.port&#45;down.4 -->
<g id="node5" class="node">
<title>tier_0.0.port&#45;down.4</title>
<polygon fill="#ffffff" stroke="black" points="593,-323 543,-323 543,-273 593,-273 593,-323"/>
<text text-anchor="middle" x="568" y="-296.1" font-family="Helvetica,Arial,sans-serif" font-size="8.00">port&#45;down.4</text>
</g>
<!-- generic.4.nic.0 -->
<g id="node22" class="node">
<title>generic.4.nic.0</title>
<polygon fill="#ffffff" stroke="black" points="647,-177 597,-177 597,-127 647,-127 647,-177"/>
<text text-anchor="middle" x="622" y="-150.1" font-family="Helvetica,Arial,sans-serif" font-size="8.00">nic.0</text>
</g>
<!-- tier_0.0.port&#45;down.4&#45;&gt;generic.4.nic.0 -->
<g id="edge21" class="edge">
<title>tier_0.0.port&#45;down.4&#45;&gt;generic.4.nic.0</title>
<path fill="none" stroke="black" d="M577.04,-272.9C587.01,-246.32 602.95,-203.79 612.93,-177.18"/>
<text text-anchor="middle" x="612" y="-232.6" font-family="Helvetica,Arial,sans-serif" font-size="8.00">100_gbps</text>
</g>
<!-- tier_0.0.port&#45;down.5 -->
<g id="node6" class="node">
<title>tier_0.0.port&#45;down.5</title>
<polygon fill="#ffffff" stroke="black" points="650,-323 600,-323 600,-273 650,-273 650,-323"/>
<text text-anchor="middle" x="625" y="-296.1" font-family="Helvetica,Arial,sans-serif" font-size="8.00">port&#45;down.5</text>
</g>
<!-- generic.5.nic.0 -->
<g id="node25" class="node">
<title>generic.5.nic.0</title>
<polygon fill="#ffffff" stroke="black" points="778,-177 728,-177 728,-127 778,-127 778,-177"/>
<text text-anchor="middle" x="753" y="-150.1" font-family="Helvetica,Arial,sans-serif" font-size="8.00">nic.0</text>
</g>
<!-- tier_0.0.port&#45;down.5&#45;&gt;generic.5.nic.0 -->
<g id="edge24" class="edge">
<title>tier_0.0.port&#45;down.5&#45;&gt;generic.5.nic.0</title>
<path fill="none" stroke="black" d="M638.39,-272.78C646.93,-258.95 659.01,-242.04 673,-230 692.29,-213.41 705.6,-221.58 724,-204 731.88,-196.47 738.24,-186.33 742.97,-177.07"/>
<text text-anchor="middle" x="693" y="-232.6" font-family="Helvetica,Arial,sans-serif" font-size="8.00">100_gbps</text>
</g>
<!-- tier_0.0.port&#45;down.6 -->
<g id="node7" class="node">
<title>tier_0.0.port&#45;down.6</title>
<polygon fill="#ffffff" stroke="black" points="707,-323 657,-323 657,-273 707,-273 707,-323"/>
<text text-anchor="middle" x="682" y="-296.1" font-family="Helvetica,Arial,sans-serif" font-size="8.00">port&#45;down.6</text>
</g>
<!-- generic.6.nic.0 -->
<g id="node28" class="node">
<title>generic.6.nic.0</title>
<polygon fill="#ffffff" stroke="black" points="909,-177 859,-177 859,-127 909,-127 909,-177"/>
<text text-anchor="middle" x="884" y="-150.1" font-family="Helvetica,Arial,sans-serif" font-size="8.00">nic.0</text>
</g>
<!-- tier_0.0.port&#45;down.6&#45;&gt;generic.6.nic.0 -->
<g id="edge27" class="edge">
<title>tier_0.0.port&#45;down.6&#45;&gt;generic.6.nic.0</title>
<path fill="none" stroke="black" d="M693.75,-272.69C701.54,-258.66 712.93,-241.57 727,-230 743.01,-216.85 749.9,-217.03 770,-212 788.41,-207.4 839.07,-214.3 855,-204 864.67,-197.75 871.45,-187.08 876.01,-177.11"/>
<text text-anchor="middle" x="747" y="-232.6" font-family="Helvetica,Arial,sans-serif" font-size="8.00">100_gbps</text>
</g>
<!-- tier_0.0.port&#45;down.7 -->
<g id="node8" class="node">
<title>tier_0.0.port&#45;down.7</title>
<polygon fill="#ffffff" stroke="black" points="764,-323 714,-323 714,-273 764,-273 764,-323"/>
<text text-anchor="middle" x="739" y="-296.1" font-family="Helvetica,Arial,sans-serif" font-size="8.00">port&#45;down.7</text>
</g>
<!-- generic.7.nic.0 -->
<g id="node31" class="node">
<title>generic.7.nic.0</title>
<polygon fill="#ffffff" stroke="black" points="1040,-177 990,-177 990,-127 1040,-127 1040,-177"/>
<text text-anchor="middle" x="1015" y="-150.1" font-family="Helvetica,Arial,sans-serif" font-size="8.00">nic.0</text>
</g>
<!-- tier_0.0.port&#45;down.7&#45;&gt;generic.7.nic.0 -->
<g id="edge30" class="edge">
<title>tier_0.0.port&#45;down.7&#45;&gt;generic.7.nic.0</title>
<path fill="none" stroke="black" d="M764.3,-293.31C812.52,-285.13 918.76,-261.44 986,-204 994.44,-196.79 1000.95,-186.47 1005.65,-177"/>
<text text-anchor="middle" x="969" y="-232.6" font-family="Helvetica,Arial,sans-serif" font-size="8.00">100_gbps</text>
</g>
<!-- tier_0.0.asic.0 -->
<g id="node9" class="node">
<title>tier_0.0.asic.0</title>
<polygon fill="#ffffff" stroke="black" points="556,-434 506,-434 506,-384 556,-384 556,-434"/>
<text text-anchor="middle" x="531" y="-407.1" font-family="Helvetica,Arial,sans-serif" font-size="8.00">asic.0</text>
</g>
<!-- tier_0.0.asic.0&#45;&gt;tier_0.0.port&#45;down.0 -->
<g id="edge1" class="edge">
<title>tier_0.0.asic.0&#45;&gt;tier_0.0.port&#45;down.0</title>
<path fill="none" stroke="black" d="M505.94,-396.85C473.31,-381.88 415.01,-353.62 369,-323 367.69,-322.13 366.38,-321.21 365.07,-320.27"/>
<text text-anchor="middle" x="433.5" y="-351.6" font-family="Helvetica,Arial,sans-serif" font-size="8.00">mii</text>
</g>
<!-- tier_0.0.asic.0&#45;&gt;tier_0.0.port&#45;down.1 -->
<g id="edge2" class="edge">
<title>tier_0.0.asic.0&#45;&gt;tier_0.0.port&#45;down.1</title>
<path fill="none" stroke="black" d="M505.9,-387.81C484.59,-370.64 453.22,-345.28 426,-323 424.79,-322.01 423.55,-320.99 422.29,-319.96"/>
<text text-anchor="middle" x="474.5" y="-351.6" font-family="Helvetica,Arial,sans-serif" font-size="8.00">mii</text>
</g>
<!-- tier_0.0.asic.0&#45;&gt;tier_0.0.port&#45;down.2 -->
<g id="edge3" class="edge">
<title>tier_0.0.asic.0&#45;&gt;tier_0.0.port&#45;down.2</title>
<path fill="none" stroke="black" d="M513.91,-383.81C501.15,-365.75 483.79,-341.17 471.04,-323.12"/>
<text text-anchor="middle" x="501.5" y="-351.6" font-family="Helvetica,Arial,sans-serif" font-size="8.00">mii</text>
</g>
<!-- tier_0.0.asic.0&#45;&gt;tier_0.0.port&#45;down.3 -->
<g id="edge4" class="edge">
<title>tier_0.0.asic.0&#45;&gt;tier_0.0.port&#45;down.3</title>
<path fill="none" stroke="black" d="M526.56,-383.81C523.25,-365.75 518.74,-341.17 515.43,-323.12"/>
<text text-anchor="middle" x="527.5" y="-351.6" font-family="Helvetica,Arial,sans-serif" font-size="8.00">mii</text>
</g>
<!-- tier_0.0.asic.0&#45;&gt;tier_0.0.port&#45;down.4 -->
<g id="edge5" class="edge">
<title>tier_0.0.asic.0&#45;&gt;tier_0.0.port&#45;down.4</title>
<path fill="none" stroke="black" d="M539.21,-383.81C545.34,-365.75 553.69,-341.17 559.81,-323.12"/>
<text text-anchor="middle" x="556.5" y="-351.6" font-family="Helvetica,Arial,sans-serif" font-size="8.00">mii</text>
</g>
<!-- tier_0.0.asic.0&#45;&gt;tier_0.0.port&#45;down.5 -->
<g id="edge6" class="edge">
<title>tier_0.0.asic.0&#45;&gt;tier_0.0.port&#45;down.5</title>
<path fill="none" stroke="black" d="M551.86,-383.81C567.44,-365.75 588.63,-341.17 604.2,-323.12"/>
<text text-anchor="middle" x="587.5" y="-351.6" font-family="Helvetica,Arial,sans-serif" font-size="8.00">mii</text>
</g>
<!-- tier_0.0.asic.0&#45;&gt;tier_0.0.port&#45;down.6 -->
<g id="edge7" class="edge">
<title>tier_0.0.asic.0&#45;&gt;tier_0.0.port&#45;down.6</title>
<path fill="none" stroke="black" d="M556.2,-391.34C581.17,-374.61 620.32,-347.84 653,-323 654.25,-322.05 655.52,-321.07 656.79,-320.07"/>
<text text-anchor="middle" x="623.5" y="-351.6" font-family="Helvetica,Arial,sans-serif" font-size="8.00">mii</text>
</g>
<!-- tier_0.0.asic.0&#45;&gt;tier_0.0.port&#45;down.7 -->
<g id="edge8" class="edge">
<title>tier_0.0.asic.0&#45;&gt;tier_0.0.port&#45;down.7</title>
<path fill="none" stroke="black" d="M556.04,-398.42C591.62,-384.31 658.21,-356 710,-323 711.32,-322.16 712.65,-321.26 713.98,-320.33"/>
<text text-anchor="middle" x="670.5" y="-351.6" font-family="Helvetica,Arial,sans-serif" font-size="8.00">mii</text>
</g>
<!-- generic.0.npu.0 -->
<g id="node12" class="node">
<title>generic.0.npu.0</title>
<polygon fill="#ffffff" stroke="black" points="93,-66 43,-66 43,-16 93,-16 93,-66"/>
<text text-anchor="middle" x="68" y="-39.1" font-family="Helvetica,Arial,sans-serif" font-size="8.00">npu.0</text>
</g>
<!-- generic.0.nic.0&#45;&gt;generic.0.npu.0 -->
<g id="edge10" class="edge">
<title>generic.0.nic.0&#45;&gt;generic.0.npu.0</title>
<path fill="none" stroke="black" d="M93.93,-126.99C91.9,-116.2 89.19,-103.37 86,-92 83.61,-83.47 80.48,-74.31 77.51,-66.19"/>
<text text-anchor="middle" x="98" y="-94.6" font-family="Helvetica,Arial,sans-serif" font-size="8.00">pcie</text>
</g>
<!-- generic.0.npu_interconnect_switch.0 -->
<g id="node11" class="node">
<title>generic.0.npu_interconnect_switch.0</title>
<polygon fill="#ffffff" stroke="black" points="66,-177 16,-177 16,-127 66,-127 66,-177"/>
<text text-anchor="middle" x="41" y="-150.1" font-family="Helvetica,Arial,sans-serif" font-size="8.00">npu_interconnect_switch.0</text>
</g>
<!-- generic.0.npu_interconnect_switch.0&#45;&gt;generic.0.npu.0 -->
<g id="edge11" class="edge">
<title>generic.0.npu_interconnect_switch.0&#45;&gt;generic.0.npu.0</title>
<path fill="none" stroke="black" d="M41.84,-126.89C42.62,-116.09 44.13,-103.27 47,-92 49.21,-83.33 52.67,-74.21 56.15,-66.17"/>
<text text-anchor="middle" x="68" y="-94.6" font-family="Helvetica,Arial,sans-serif" font-size="8.00">1600gbps</text>
</g>
<!-- generic.1.npu.0 -->
<g id="node15" class="node">
<title>generic.1.npu.0</title>
<polygon fill="#ffffff" stroke="black" points="226,-66 176,-66 176,-16 226,-16 226,-66"/>
<text text-anchor="middle" x="201" y="-39.1" font-family="Helvetica,Arial,sans-serif" font-size="8.00">npu.0</text>
</g>
<!-- generic.1.nic.0&#45;&gt;generic.1.npu.0 -->
<g id="edge13" class="edge">
<title>generic.1.nic.0&#45;&gt;generic.1.npu.0</title>
<path fill="none" stroke="black" d="M224.09,-126.79C221.81,-116.08 218.95,-103.37 216,-92 213.79,-83.49 211.1,-74.25 208.61,-66.06"/>
<text text-anchor="middle" x="227" y="-94.6" font-family="Helvetica,Arial,sans-serif" font-size="8.00">pcie</text>
</g>
<!-- generic.1.npu_interconnect_switch.0 -->
<g id="node14" class="node">
<title>generic.1.npu_interconnect_switch.0</title>
<polygon fill="#ffffff" stroke="black" points="197,-177 147,-177 147,-127 197,-127 197,-177"/>
<text text-anchor="middle" x="172" y="-150.1" font-family="Helvetica,Arial,sans-serif" font-size="8.00">npu_interconnect_switch.0</text>
</g>
<!-- generic.1.npu_interconnect_switch.0&#45;&gt;generic.1.npu.0 -->
<g id="edge14" class="edge">
<title>generic.1.npu_interconnect_switch.0&#45;&gt;generic.1.npu.0</title>
<path fill="none" stroke="black" d="M169.76,-126.8C169.43,-115.98 169.98,-103.18 173,-92 175.41,-83.07 179.77,-74.03 184.33,-66.13"/>
<text text-anchor="middle" x="194" y="-94.6" font-family="Helvetica,Arial,sans-serif" font-size="8.00">1600gbps</text>
</g>
<!-- generic.2.npu.0 -->
<g id="node18" class="node">
<title>generic.2.npu.0</title>
<polygon fill="#ffffff" stroke="black" points="357,-66 307,-66 307,-16 357,-16 357,-66"/>
<text text-anchor="middle" x="332" y="-39.1" font-family="Helvetica,Arial,sans-serif" font-size="8.00">npu.0</text>
</g>
<!-- generic.2.nic.0&#45;&gt;generic.2.npu.0 -->
<g id="edge16" class="edge">
<title>generic.2.nic.0&#45;&gt;generic.2.npu.0</title>
<path fill="none" stroke="black" d="M355.09,-126.79C352.81,-116.08 349.95,-103.37 347,-92 344.79,-83.49 342.1,-74.25 339.61,-66.06"/>
<text text-anchor="middle" x="358" y="-94.6" font-family="Helvetica,Arial,sans-serif" font-size="8.00">pcie</text>
</g>
<!-- generic.2.npu_interconnect_switch.0 -->
<g id="node17" class="node">
<title>generic.2.npu_interconnect_switch.0</title>
<polygon fill="#ffffff" stroke="black" points="328,-177 278,-177 278,-127 328,-127 328,-177"/>
<text text-anchor="middle" x="303" y="-150.1" font-family="Helvetica,Arial,sans-serif" font-size="8.00">npu_interconnect_switch.0</text>
</g>
<!-- generic.2.npu_interconnect_switch.0&#45;&gt;generic.2.npu.0 -->
<g id="edge17" class="edge">
<title>generic.2.npu_interconnect_switch.0&#45;&gt;generic.2.npu.0</title>
<path fill="none" stroke="black" d="M300.76,-126.8C300.43,-115.98 300.98,-103.18 304,-92 306.41,-83.07 310.77,-74.03 315.33,-66.13"/>
<text text-anchor="middle" x="325" y="-94.6" font-family="Helvetica,Arial,sans-serif" font-size="8.00">1600gbps</text>
</g>
<!-- generic.3.npu.0 -->
<g id="node21" class="node">
<title>generic.3.npu.0</title>
<polygon fill="#ffffff" stroke="black" points="488,-66 438,-66 438,-16 488,-16 488,-66"/>
<text text-anchor="middle" x="463" y="-39.1" font-family="Helvetica,Arial,sans-serif" font-size="8.00">npu.0</text>
</g>
<!-- generic.3.nic.0&#45;&gt;generic.3.npu.0 -->
<g id="edge19" class="edge">
<title>generic.3.nic.0&#45;&gt;generic.3.npu.0</title>
<path fill="none" stroke="black" d="M486.09,-126.79C483.81,-116.08 480.95,-103.37 478,-92 475.79,-83.49 473.1,-74.25 470.61,-66.06"/>
<text text-anchor="middle" x="489" y="-94.6" font-family="Helvetica,Arial,sans-serif" font-size="8.00">pcie</text>
</g>
<!-- generic.3.npu_interconnect_switch.0 -->
<g id="node20" class="node">
<title>generic.3.npu_interconnect_switch.0</title>
<polygon fill="#ffffff" stroke="black" points="459,-177 409,-177 409,-127 459,-127 459,-177"/>
<text text-anchor="middle" x="434" y="-150.1" font-family="Helvetica,Arial,sans-serif" font-size="8.00">npu_interconnect_switch.0</text>
</g>
<!-- generic.3.npu_interconnect_switch.0&#45;&gt;generic.3.npu.0 -->
<g id="edge20" class="edge">
<title>generic.3.npu_interconnect_switch.0&#45;&gt;generic.3.npu.0</title>
<path fill="none" stroke="black" d="M431.76,-126.8C431.43,-115.98 431.98,-103.18 435,-92 437.41,-83.07 441.77,-74.03 446.33,-66.13"/>
<text text-anchor="middle" x="456" y="-94.6" font-family="Helvetica,Arial,sans-serif" font-size="8.00">1600gbps</text>
</g>
<!-- generic.4.npu.0 -->
<g id="node24" class="node">
<title>generic.4.npu.0</title>
<polygon fill="#ffffff" stroke="black" points="619,-66 569,-66 569,-16 619,-16 619,-66"/>
<text text-anchor="middle" x="594" y="-39.1" font-family="Helvetica,Arial,sans-serif" font-size="8.00">npu.0</text>
</g>
<!-- generic.4.nic.0&#45;&gt;generic.4.npu.0 -->
<g id="edge22" class="edge">
<title>generic.4.nic.0&#45;&gt;generic.4.npu.0</title>
<path fill="none" stroke="black" d="M617.09,-126.79C614.81,-116.08 611.95,-103.37 609,-92 606.79,-83.49 604.1,-74.25 601.61,-66.06"/>
<text text-anchor="middle" x="620" y="-94.6" font-family="Helvetica,Arial,sans-serif" font-size="8.00">pcie</text>
</g>
<!-- generic.4.npu_interconnect_switch.0 -->
<g id="node23" class="node">
<title>generic.4.npu_interconnect_switch.0</title>
<polygon fill="#ffffff" stroke="black" points="590,-177 540,-177 540,-127 590,-127 590,-177"/>
<text text-anchor="middle" x="565" y="-150.1" font-family="Helvetica,Arial,sans-serif" font-size="8.00">npu_interconnect_switch.0</text>
</g>
<!-- generic.4.npu_interconnect_switch.0&#45;&gt;generic.4.npu.0 -->
<g id="edge23" class="edge">
<title>generic.4.npu_interconnect_switch.0&#45;&gt;generic.4.npu.0</title>
<path fill="none" stroke="black" d="M562.76,-126.8C562.43,-115.98 562.98,-103.18 566,-92 568.41,-83.07 572.77,-74.03 577.33,-66.13"/>
<text text-anchor="middle" x="587" y="-94.6" font-family="Helvetica,Arial,sans-serif" font-size="8.00">1600gbps</text>
</g>
<!-- generic.5.npu.0 -->
<g id="node27" class="node">
<title>generic.5.npu.0</title>
<polygon fill="#ffffff" stroke="black" points="750,-66 700,-66 700,-16 750,-16 750,-66"/>
<text text-anchor="middle" x="725" y="-39.1" font-family="Helvetica,Arial,sans-serif" font-size="8.00">npu.0</text>
</g>
<!-- generic.5.nic.0&#45;&gt;generic.5.npu.0 -->
<g id="edge25" class="edge">
<title>generic.5.nic.0&#45;&gt;generic.5.npu.0</title>
<path fill="none" stroke="black" d="M748.09,-126.79C745.81,-116.08 742.95,-103.37 740,-92 737.79,-83.49 735.1,-74.25 732.61,-66.06"/>
<text text-anchor="middle" x="751" y="-94.6" font-family="Helvetica,Arial,sans-serif" font-size="8.00">pcie</text>
</g>
<!-- generic.5.npu_interconnect_switch.0 -->
<g id="node26" class="node">
<title>generic.5.npu_interconnect_switch.0</title>
<polygon fill="#ffffff" stroke="black" points="721,-177 671,-177 671,-127 721,-127 721,-177"/>
<text text-anchor="middle" x="696" y="-150.1" font-family="Helvetica,Arial,sans-serif" font-size="8.00">npu_interconnect_switch.0</text>
</g>
<!-- generic.5.npu_interconnect_switch.0&#45;&gt;generic.5.npu.0 -->
<g id="edge26" class="edge">
<title>generic.5.npu_interconnect_switch.0&#45;&gt;generic.5.npu.0</title>
<path fill="none" stroke="black" d="M693.76,-126.8C693.43,-115.98 693.98,-103.18 697,-92 699.41,-83.07 703.77,-74.03 708.33,-66.13"/>
<text text-anchor="middle" x="718" y="-94.6" font-family="Helvetica,Arial,sans-serif" font-size="8.00">1600gbps</text>
</g>
<!-- generic.6.npu.0 -->
<g id="node30" class="node">
<title>generic.6.npu.0</title>
<polygon fill="#ffffff" stroke="black" points="881,-66 831,-66 831,-16 881,-16 881,-66"/>
<text text-anchor="middle" x="856" y="-39.1" font-family="Helvetica,Arial,sans-serif" font-size="8.00">npu.0</text>
</g>
<!-- generic.6.nic.0&#45;&gt;generic.6.npu.0 -->
<g id="edge28" class="edge">
<title>generic.6.nic.0&#45;&gt;generic.6.npu.0</title>
<path fill="none" stroke="black" d="M879.09,-126.79C876.81,-116.08 873.95,-103.37 871,-92 868.79,-83.49 866.1,-74.25 863.61,-66.06"/>
<text text-anchor="middle" x="882" y="-94.6" font-family="Helvetica,Arial,sans-serif" font-size="8.00">pcie</text>
</g>
<!-- generic.6.npu_interconnect_switch.0 -->
<g id="node29" class="node">
<title>generic.6.npu_interconnect_switch.0</title>
<polygon fill="#ffffff" stroke="black" points="852,-177 802,-177 802,-127 852,-127 852,-177"/>
<text text-anchor="middle" x="827" y="-150.1" font-family="Helvetica,Arial,sans-serif" font-size="8.00">npu_interconnect_switch.0</text>
</g>
<!-- generic.6.npu_interconnect_switch.0&#45;&gt;generic.6.npu.0 -->
<g id="edge29" class="edge">
<title>generic.6.npu_interconnect_switch.0&#45;&gt;generic.6.npu.0</title>
<path fill="none" stroke="black" d="M824.76,-126.8C824.43,-115.98 824.98,-103.18 828,-92 830.41,-83.07 834.77,-74.03 839.33,-66.13"/>
<text text-anchor="middle" x="849" y="-94.6" font-family="Helvetica,Arial,sans-serif" font-size="8.00">1600gbps</text>
</g>
<!-- generic.7.npu.0 -->
<g id="node33" class="node">
<title>generic.7.npu.0</title>
<polygon fill="#ffffff" stroke="black" points="1012,-66 962,-66 962,-16 1012,-16 1012,-66"/>
<text text-anchor="middle" x="987" y="-39.1" font-family="Helvetica,Arial,sans-serif" font-size="8.00">npu.0</text>
</g>
<!-- generic.7.nic.0&#45;&gt;generic.7.npu.0 -->
<g id="edge31" class="edge">
<title>generic.7.nic.0&#45;&gt;generic.7.npu.0</title>
<path fill="none" stroke="black" d="M1010.09,-126.79C1007.81,-116.08 1004.95,-103.37 1002,-92 999.79,-83.49 997.1,-74.25 994.61,-66.06"/>
<text text-anchor="middle" x="1013" y="-94.6" font-family="Helvetica,Arial,sans-serif" font-size="8.00">pcie</text>
</g>
<!-- generic.7.npu_interconnect_switch.0 -->
<g id="node32" class="node">
<title>generic.7.npu_interconnect_switch.0</title>
<polygon fill="#ffffff" stroke="black" points="983,-177 933,-177 933,-127 983,-127 983,-177"/>
<text text-anchor="middle" x="958" y="-150.1" font-family="Helvetica,Arial,sans-serif" font-size="8.00">npu_interconnect_switch.0</text>
</g>
<!-- generic.7.npu_interconnect_switch.0&#45;&gt;generic.7.npu.0 -->
<g id="edge32" class="edge">
<title>generic.7.npu_interconnect_switch.0&#45;&gt;generic.7.npu.0</title>
<path fill="none" stroke="black" d="M955.76,-126.8C955.43,-115.98 955.98,-103.18 959,-92 961.41,-83.07 965.77,-74.03 970.33,-66.13"/>
<text text-anchor="middle" x="980" y="-94.6" font-family="Helvetica,Arial,sans-serif" font-size="8.00">1600gbps</text>
</g>
</g>
</svg>
