<?xml version="1.0" encoding="UTF-8" standalone="no"?>
<!DOCTYPE svg PUBLIC "-//W3C//DTD SVG 1.1//EN"
 "http://www.w3.org/Graphics/SVG/1.1/DTD/svg11.dtd">
<!-- Generated by graphviz version 2.43.0 (0)
 -->
<!-- Title: compressed Pages: 1 -->
<svg width="608pt" height="255pt"
 viewBox="0.00 0.00 608.00 255.00" xmlns="http://www.w3.org/2000/svg" xmlns:xlink="http://www.w3.org/1999/xlink">
<g id="graph0" class="graph" transform="scale(1 1) rotate(0) translate(4 251)">
<title>compressed</title>
<polygon fill="white" stroke="transparent" points="-4,4 -4,-251 604,-251 604,4 -4,4"/>
<g id="clust1" class="cluster">
<title>cluster_tier_0.0</title>
<polygon fill="#ffffff" stroke="black" points="266,-154 266,-239 332,-239 332,-154 266,-154"/>
<text text-anchor="middle" x="299" y="-227" font-family="Helvetica,Arial,sans-serif" font-size="10.00">tier_0.0</text>
</g>
<g id="clust2" class="cluster">
<title>cluster_generic.0</title>
<polygon fill="#ffffff" stroke="black" points="8,-8 8,-93 74,-93 74,-8 8,-8"/>
<text text-anchor="middle" x="41" y="-81" font-family="Helvetica,Arial,sans-serif" font-size="10.00">generic.0</text>
</g>
<g id="clust3" class="cluster">
<title>cluster_generic.1</title>
<polygon fill="#ffffff" stroke="black" points="82,-8 82,-93 148,-93 148,-8 82,-8"/>
<text text-anchor="middle" x="115" y="-81" font-family="Helvetica,Arial,sans-serif" font-size="10.00">generic.1</text>
</g>
<g id="clust4" class="cluster">
<title>cluster_generic.2</title>
<polygon fill="#ffffff" stroke="black" points="156,-8 156,-93 222,-93 222,-8 156,-8"/>
<text text-anchor="middle" x="189" y="-81" font-family="Helvetica,Arial,sans-serif" font-size="10.00">generic.2</text>
</g>
<g id="clust5" class="cluster">
<title>cluster_generic.3</title>
<polygon fill="#ffffff" stroke="black" points="230,-8 230,-93 296,-93 296,-8 230,-8"/>
<text text-anchor="middle" x="263" y="-81" font-family="Helvetica,Arial,sans-serif" font-size="10.00">generic.3</text>
</g>
<g id="clust6" class="cluster">
<title>cluster_generic.4</title>
<polygon fill="#ffffff" stroke="black" points="304,-8 304,-93 370,-93 370,-8 304,-8"/>
<text text-anchor="middle" x="337" y="-81" font-family="Helvetica,Arial,sans-serif" font-size="10.00">generic.4</text>
</g>
<g id="clust7" class="cluster">
<title>cluster_generic.5</title>
<polygon fill="#ffffff" stroke="black" points="378,-8 378,-93 444,-93 444,-8 378,-8"/>
<text text-anchor="middle" x="411" y="-81" font-family="Helvetica,Arial,sans-serif" font-size="10.00">generic.5</text>
</g>
<g id="clust8" class="cluster">
<title>cluster_generic.6</title>
<polygon fill="#ffffff" stroke="black" points="452,-8 452,-93 518,-93 518,-8 452,-8"/>
<text text-anchor="middle" x="485" y="-81" font-family="Helvetica,Arial,sans-serif" font-size="10.00">generic.6</text>
</g>
<g id="clust9" class="cluster">
<title>cluster_generic.7</title>
<polygon fill="#ffffff" stroke="black" points="526,-8 526,-93 592,-93 592,-8 526,-8"/>
<text text-anchor="middle" x="559" y="-81" font-family="Helvetica,Arial,sans-serif" font-size="10.00">generic.7</text>
</g>
<!-- tier_0.0.port&#45;down -->
<g id="node1" class="node">
<title>tier_0.0.port&#45;down</title>
<polygon fill="#ffffff" stroke="black" points="324,-212 274,-212 274,-162 324,-162 324,-212"/>
<text text-anchor="middle" x="299" y="-185.1" font-family="Helvetica,Arial,sans-serif" font-size="8.00">port&#45;down</text>
</g>
<!-- generic.0.nic -->
<g id="node2" class="node">
<title>generic.0.nic</title>
<polygon fill="#ffffff" stroke="black" points="66,-66 16,-66 16,-16 66,-16 66,-66"/>
<text text-anchor="middle" x="41" y="-39.1" font-family="Helvetica,Arial,sans-serif" font-size="8.00">nic</text>
</g>
<!-- tier_0.0.port&#45;down&#45;&gt;generic.0.nic -->
<g id="edge1" class="edge">
<title>tier_0.0.port&#45;down&#45;&gt;generic.0.nic</title>
<path fill="none" stroke="black" d="M273.95,-180.86C230.21,-170.78 139.05,-144.76 81,-93 72.18,-85.14 63.87,-75.14 57.13,-66.09"/>
<text text-anchor="middle" x="151" y="-121.6" font-family="Helvetica,Arial,sans-serif" font-size="8.00">100_gbps</text>
</g>
<!-- generic.1.nic -->
<g id="node3" class="node">
<title>generic.1.nic</title>
<polygon fill="#ffffff" stroke="black" points="140,-66 90,-66 90,-16 140,-16 140,-66"/>
<text text-anchor="middle" x="115" y="-39.1" font-family="Helvetica,Arial,sans-serif" font-size="8.00">nic</text>
</g>
<!-- tier_0.0.port&#45;down&#45;&gt;generic.1.nic -->
<g id="edge2" class="edge">
<title>tier_0.0.port&#45;down&#45;&gt;generic.1.nic</title>
<path fill="none" stroke="black" d="M273.82,-174.94C251.15,-164.42 217.44,-147.36 191,-128 173,-114.82 169.92,-109.59 155,-93 147.4,-84.55 139.57,-74.83 132.88,-66.15"/>
<text text-anchor="middle" x="211" y="-121.6" font-family="Helvetica,Arial,sans-serif" font-size="8.00">100_gbps</text>
</g>
<!-- generic.2.nic -->
<g id="node4" class="node">
<title>generic.2.nic</title>
<polygon fill="#ffffff" stroke="black" points="214,-66 164,-66 164,-16 214,-16 214,-66"/>
<text text-anchor="middle" x="189" y="-39.1" font-family="Helvetica,Arial,sans-serif" font-size="8.00">nic</text>
</g>
<!-- tier_0.0.port&#45;down&#45;&gt;generic.2.nic -->
<g id="edge3" class="edge">
<title>tier_0.0.port&#45;down&#45;&gt;generic.2.nic</title>
<path fill="none" stroke="black" d="M273.8,-164.53C262.43,-154.15 249.27,-141.12 239,-128 223.77,-108.56 209.95,-84 200.72,-66.11"/>
<text text-anchor="middle" x="259" y="-121.6" font-family="Helvetica,Arial,sans-serif" font-size="8.00">100_gbps</text>
</g>
<!-- generic.3.nic -->
<g id="node5" class="node">
<title>generic.3.nic</title>
<polygon fill="#ffffff" stroke="black" points="288,-66 238,-66 238,-16 288,-16 288,-66"/>
<text text-anchor="middle" x="263" y="-39.1" font-family="Helvetica,Arial,sans-serif" font-size="8.00">nic</text>
</g>
<!-- tier_0.0.port&#45;down&#45;&gt;generic.3.nic -->
<g id="edge4" class="edge">
<title>tier_0.0.port&#45;down&#45;&gt;generic.3.nic</title>
<path fill="none" stroke="black" d="M292.08,-161.79C289.18,-151.41 285.83,-139.14 283,-128 277.71,-107.2 272.23,-83.43 268.34,-66.16"/>
<text text-anchor="middle" x="303" y="-121.6" font-family="Helvetica,Arial,sans-serif" font-size="8.00">100_gbps</text>
</g>
<!-- generic.4.nic -->
<g id="node6" class="node">
<title>generic.4.nic</title>
<polygon fill="#ffffff" stroke="black" points="362,-66 312,-66 312,-16 362,-16 362,-66"/>
<text text-anchor="middle" x="337" y="-39.1" font-family="Helvetica,Arial,sans-serif" font-size="8.00">nic</text>
</g>
<!-- tier_0.0.port&#45;down&#45;&gt;generic.4.nic -->
<g id="edge5" class="edge">
<title>tier_0.0.port&#45;down&#45;&gt;generic.4.nic</title>
<path fill="none" stroke="black" d="M308.62,-162C312.52,-151.65 316.84,-139.35 320,-128 325.71,-107.47 330.26,-83.68 333.21,-66.33"/>
<text text-anchor="middle" x="342" y="-121.6" font-family="Helvetica,Arial,sans-serif" font-size="8.00">100_gbps</text>
</g>
<!-- generic.5.nic -->
<g id="node7" class="node">
<title>generic.5.nic</title>
<polygon fill="#ffffff" stroke="black" points="436,-66 386,-66 386,-16 436,-16 436,-66"/>
<text text-anchor="middle" x="411" y="-39.1" font-family="Helvetica,Arial,sans-serif" font-size="8.00">nic</text>
</g>
<!-- tier_0.0.port&#45;down&#45;&gt;generic.5.nic -->
<g id="edge6" class="edge">
<title>tier_0.0.port&#45;down&#45;&gt;generic.5.nic</title>
<path fill="none" stroke="black" d="M324.2,-166.47C336.79,-155.94 351.71,-142.2 363,-128 378.22,-108.86 391.41,-84.27 400.09,-66.29"/>
<text text-anchor="middle" x="389" y="-121.6" font-family="Helvetica,Arial,sans-serif" font-size="8.00">100_gbps</text>
</g>
<!-- generic.6.nic -->
<g id="node8" class="node">
<title>generic.6.nic</title>
<polygon fill="#ffffff" stroke="black" points="510,-66 460,-66 460,-16 510,-16 510,-66"/>
<text text-anchor="middle" x="485" y="-39.1" font-family="Helvetica,Arial,sans-serif" font-size="8.00">nic</text>
</g>
<!-- tier_0.0.port&#45;down&#45;&gt;generic.6.nic -->
<g id="edge7" class="edge">
<title>tier_0.0.port&#45;down&#45;&gt;generic.6.nic</title>
<path fill="none" stroke="black" d="M324.06,-175.55C347.42,-165.22 382.66,-148.08 410,-128 427.73,-114.98 430.41,-109.46 445,-93 452.54,-84.5 460.36,-74.76 467.06,-66.1"/>
<text text-anchor="middle" x="441" y="-121.6" font-family="Helvetica,Arial,sans-serif" font-size="8.00">100_gbps</text>
</g>
<!-- generic.7.nic -->
<g id="node9" class="node">
<title>generic.7.nic</title>
<polygon fill="#ffffff" stroke="black" points="584,-66 534,-66 534,-16 584,-16 584,-66"/>
<text text-anchor="middle" x="559" y="-39.1" font-family="Helvetica,Arial,sans-serif" font-size="8.00">nic</text>
</g>
<!-- tier_0.0.port&#45;down&#45;&gt;generic.7.nic -->
<g id="edge8" class="edge">
<title>tier_0.0.port&#45;down&#45;&gt;generic.7.nic</title>
<path fill="none" stroke="black" d="M324.3,-180.94C368.47,-170.99 460.5,-145.16 519,-93 527.82,-85.14 536.13,-75.14 542.87,-66.09"/>
<text text-anchor="middle" x="503" y="-121.6" font-family="Helvetica,Arial,sans-serif" font-size="8.00">100_gbps</text>
</g>
</g>
</svg>
