<?xml version="1.0" encoding="UTF-8" standalone="no"?>
<!DOCTYPE svg PUBLIC "-//W3C//DTD SVG 1.1//EN"
 "http://www.w3.org/Graphics/SVG/1.1/DTD/svg11.dtd">
<!-- Generated by graphviz version 2.43.0 (0)
 -->
<!-- Title: high_level_diagram Pages: 1 -->
<svg width="200pt" height="299pt"
 viewBox="0.00 0.00 200.00 299.00" xmlns="http://www.w3.org/2000/svg" xmlns:xlink="http://www.w3.org/1999/xlink">
<g id="graph0" class="graph" transform="scale(1 1) rotate(0) translate(4 295)">
<title>high_level_diagram</title>
<polygon fill="white" stroke="transparent" points="-4,4 -4,-295 196,-295 196,4 -4,4"/>
<g id="clust1" class="cluster">
<title>cluster_CLOS</title>
<polygon fill="white" stroke="black" points="8,-8 8,-283 184,-283 184,-8 8,-8"/>
<text text-anchor="middle" x="96" y="-271" font-family="Helvetica,Arial,sans-serif" font-size="10.00">CLOS</text>
</g>
<g id="clust2" class="cluster">
<title>cluster_CG&#45;Tier&#45;0.0</title>
<polygon fill="white" stroke="black" points="16,-16 16,-256 176,-256 176,-16 16,-16"/>
<text text-anchor="middle" x="96" y="-244" font-family="Helvetica,Arial,sans-serif" font-size="10.00">CG&#45;Tier&#45;0.0</text>
</g>
<!-- CG&#45;Tier&#45;0.0.tier_0 -->
<g id="node1" class="node">
<title>CG&#45;Tier&#45;0.0.tier_0</title>
<g id="a_node1"><a xlink:title="tier_0.0">
<polygon fill="lightgrey" stroke="black" points="168,-229 24,-229 24,-157 168,-157 168,-229"/>
<text text-anchor="middle" x="96" y="-195.6" font-family="Helvetica,Arial,sans-serif" font-size="8.00">tier_0</text>
<text text-anchor="middle" x="96" y="-186.6" font-family="Helvetica,Arial,sans-serif" font-size="8.00">devices : 1</text>
</a>
</g>
</g>
<!-- CG&#45;Tier&#45;0.0.generic -->
<g id="node2" class="node">
<title>CG&#45;Tier&#45;0.0.generic</title>
<g id="a_node2"><a xlink:title="generic.6, generic.5, generic.1, generic.2, generic.7, generic.4, generic.0, generic.3">
<polygon fill="lightgrey" stroke="black" points="126.5,-96 65.5,-96 65.5,-24 126.5,-24 126.5,-96"/>
<text text-anchor="middle" x="96" y="-62.6" font-family="Helvetica,Arial,sans-serif" font-size="8.00">generic</text>
<text text-anchor="middle" x="96" y="-53.6" font-family="Helvetica,Arial,sans-serif" font-size="8.00">devices : 8</text>
</a>
</g>
</g>
<!-- CG&#45;Tier&#45;0.0.tier_0&#45;&gt;CG&#45;Tier&#45;0.0.generic -->
<g id="edge1" class="edge">
<title>CG&#45;Tier&#45;0.0.tier_0&#45;&gt;CG&#45;Tier&#45;0.0.generic</title>
<path fill="none" stroke="black" d="M96,-156.89C96,-138.1 96,-115.01 96,-96.2"/>
<text text-anchor="middle" x="116" y="-124.6" font-family="Helvetica,Arial,sans-serif" font-size="8.00">100_gbps</text>
</g>
</g>
</svg>
